<mxfile host="Electron" modified="2023-11-27T20:49:03.568Z" agent="Mozilla/5.0 (X11; Linux x86_64) AppleWebKit/537.36 (KHTML, like Gecko) draw.io/22.1.2 Chrome/114.0.5735.289 Electron/25.9.4 Safari/537.36" etag="4To_-YGRysody_f3gk4_" version="22.1.2" type="device">
  <diagram id="C5RBs43oDa-KdzZeNtuy" name="Page-1">
    <mxGraphModel dx="956" dy="636" grid="1" gridSize="10" guides="1" tooltips="1" connect="1" arrows="1" fold="1" page="1" pageScale="1" pageWidth="827" pageHeight="1169" math="0" shadow="0">
      <root>
        <mxCell id="WIyWlLk6GJQsqaUBKTNV-0" />
        <mxCell id="WIyWlLk6GJQsqaUBKTNV-1" parent="WIyWlLk6GJQsqaUBKTNV-0" />
        <mxCell id="odjW-yH4qVcpf3gma5qI-2" value="" style="edgeStyle=orthogonalEdgeStyle;rounded=0;orthogonalLoop=1;jettySize=auto;html=1;" edge="1" parent="WIyWlLk6GJQsqaUBKTNV-1" source="odjW-yH4qVcpf3gma5qI-0" target="odjW-yH4qVcpf3gma5qI-1">
          <mxGeometry relative="1" as="geometry" />
        </mxCell>
        <mxCell id="odjW-yH4qVcpf3gma5qI-0" value="Начало" style="rounded=1;whiteSpace=wrap;html=1;" vertex="1" parent="WIyWlLk6GJQsqaUBKTNV-1">
          <mxGeometry x="190" y="20" width="120" height="60" as="geometry" />
        </mxCell>
        <mxCell id="odjW-yH4qVcpf3gma5qI-4" value="" style="edgeStyle=orthogonalEdgeStyle;rounded=0;orthogonalLoop=1;jettySize=auto;html=1;" edge="1" parent="WIyWlLk6GJQsqaUBKTNV-1" source="odjW-yH4qVcpf3gma5qI-1" target="odjW-yH4qVcpf3gma5qI-3">
          <mxGeometry relative="1" as="geometry" />
        </mxCell>
        <mxCell id="odjW-yH4qVcpf3gma5qI-1" value="n1, n2, n3, n4" style="shape=parallelogram;perimeter=parallelogramPerimeter;whiteSpace=wrap;html=1;fixedSize=1;" vertex="1" parent="WIyWlLk6GJQsqaUBKTNV-1">
          <mxGeometry x="190" y="130" width="120" height="60" as="geometry" />
        </mxCell>
        <mxCell id="odjW-yH4qVcpf3gma5qI-7" value="" style="edgeStyle=orthogonalEdgeStyle;rounded=0;orthogonalLoop=1;jettySize=auto;html=1;" edge="1" parent="WIyWlLk6GJQsqaUBKTNV-1" source="odjW-yH4qVcpf3gma5qI-3" target="odjW-yH4qVcpf3gma5qI-5">
          <mxGeometry relative="1" as="geometry" />
        </mxCell>
        <mxCell id="odjW-yH4qVcpf3gma5qI-3" value="ans = (n1 + n2 + n3 + n4) / 4" style="rounded=0;whiteSpace=wrap;html=1;" vertex="1" parent="WIyWlLk6GJQsqaUBKTNV-1">
          <mxGeometry x="160" y="220" width="180" height="60" as="geometry" />
        </mxCell>
        <mxCell id="odjW-yH4qVcpf3gma5qI-8" value="" style="edgeStyle=orthogonalEdgeStyle;rounded=0;orthogonalLoop=1;jettySize=auto;html=1;" edge="1" parent="WIyWlLk6GJQsqaUBKTNV-1" source="odjW-yH4qVcpf3gma5qI-5" target="odjW-yH4qVcpf3gma5qI-6">
          <mxGeometry relative="1" as="geometry" />
        </mxCell>
        <mxCell id="odjW-yH4qVcpf3gma5qI-5" value="ans" style="shape=document;whiteSpace=wrap;html=1;boundedLbl=1;" vertex="1" parent="WIyWlLk6GJQsqaUBKTNV-1">
          <mxGeometry x="190" y="300" width="120" height="80" as="geometry" />
        </mxCell>
        <mxCell id="odjW-yH4qVcpf3gma5qI-6" value="Конец" style="rounded=1;whiteSpace=wrap;html=1;" vertex="1" parent="WIyWlLk6GJQsqaUBKTNV-1">
          <mxGeometry x="190" y="410" width="120" height="60" as="geometry" />
        </mxCell>
        <mxCell id="odjW-yH4qVcpf3gma5qI-9" value="Задача 3&lt;br&gt;Нахождение срденего арифметического 4-х числе" style="text;html=1;strokeColor=none;fillColor=none;align=center;verticalAlign=middle;whiteSpace=wrap;rounded=0;" vertex="1" parent="WIyWlLk6GJQsqaUBKTNV-1">
          <mxGeometry x="350" y="25" width="226" height="50" as="geometry" />
        </mxCell>
      </root>
    </mxGraphModel>
  </diagram>
</mxfile>
